<svg width="36" height="36" viewBox="0 0 36 36" fill="none" xmlns="http://www.w3.org/2000/svg">
<path d="M0 22.1167C7.79392 21.995 13.6958 20.5216 13.6958 17.9106C13.6958 15.2996 7.79357 13.8263 0 13.7045V10.0189C11.7665 10.2288 21.0713 13.9381 21.0713 17.9106C21.0713 21.8832 11.7661 25.5924 0 25.8023V22.1167ZM0 20.008V15.813C3.20569 15.8704 6.16801 16.188 8.39429 16.7016C9.55706 16.9702 10.4708 17.2823 11.0613 17.6055C11.2642 17.716 11.4153 17.821 11.5146 17.9105C11.4153 18.0001 11.2642 18.105 11.0613 18.2156C10.4708 18.5388 9.55706 18.8508 8.39429 19.1195C6.16809 19.633 3.20599 19.9506 0 20.008ZM0 27.9108C12.8565 27.6953 23.1787 23.5579 23.1787 17.9103C23.1787 12.2628 12.8565 8.12549 0 7.90986V4.22137C17.6082 4.46203 31.6064 10.7265 31.6064 17.9103C31.6064 25.0942 17.6082 31.3587 0 31.5994V27.9108ZM0 33.7068C18.6563 33.4618 33.7137 26.7119 33.7137 17.9103C33.7137 9.10877 18.6563 2.35903 0 2.11402V1.05339C0 0.471304 0.471546 -0.000244141 1.05364 -0.000244141H34.7671C35.3493 -0.000244141 35.8208 0.471304 35.8208 1.05339V34.7669C35.8208 35.3491 35.3493 35.8206 34.7671 35.8206H1.05364C0.471546 35.8206 0 35.3491 0 34.7669V33.7068Z" fill="white"/>
</svg>
